<?xml version="1.0" standalone="no"?>
<!DOCTYPE svg PUBLIC "-//W3C//DTD SVG 20010904//EN"
 "http://www.w3.org/TR/2001/REC-SVG-20010904/DTD/svg10.dtd">
<svg version="1.0" xmlns="http://www.w3.org/2000/svg"
 width="1239.000000pt" height="1239.000000pt" viewBox="0 0 1239.000000 1239.000000"
 preserveAspectRatio="xMidYMid meet">
<metadata>
Created by potrace 1.14, written by Peter Selinger 2001-2017
</metadata>
<g transform="translate(0.000000,1239.000000) scale(0.100000,-0.100000)"
fill="#000000" stroke="none">
<path d="M5898 12385 c-2 -2 -50 -6 -108 -9 -115 -7 -157 -11 -300 -27 -101
-11 -134 -15 -190 -23 -47 -7 -308 -53 -340 -60 -14 -3 -34 -8 -45 -10 -11 -2
-50 -11 -86 -20 -37 -8 -78 -17 -90 -20 -70 -12 -331 -88 -504 -145 -155 -51
-497 -183 -520 -201 -5 -4 -21 -11 -35 -15 -73 -23 -526 -255 -617 -317 -23
-15 -44 -28 -47 -28 -6 0 -278 -171 -286 -179 -3 -3 -41 -30 -85 -60 -176
-120 -436 -327 -620 -494 -138 -126 -410 -404 -490 -500 -5 -7 -35 -41 -66
-77 -379 -444 -734 -1016 -959 -1545 -23 -55 -48 -113 -55 -130 -76 -174 -238
-674 -280 -864 -2 -9 -13 -59 -25 -111 -25 -112 -76 -386 -84 -450 -3 -25 -10
-76 -15 -115 -9 -64 -17 -138 -26 -240 -27 -289 -27 -852 0 -1110 2 -22 6 -62
9 -90 14 -130 20 -172 47 -340 16 -99 39 -223 50 -275 11 -52 23 -105 25 -118
3 -13 20 -85 40 -160 150 -582 380 -1131 692 -1652 80 -133 288 -446 312 -470
3 -3 25 -32 49 -65 46 -62 189 -240 228 -285 12 -14 31 -36 43 -50 160 -187
421 -446 640 -635 96 -83 103 -89 205 -168 55 -43 107 -84 115 -90 8 -7 38
-28 65 -47 28 -19 52 -38 55 -41 20 -22 501 -329 516 -329 2 0 23 -12 46 -26
114 -72 479 -248 698 -336 175 -71 455 -171 540 -193 8 -2 56 -16 105 -30 50
-14 101 -28 115 -31 14 -3 48 -11 75 -19 50 -14 217 -53 265 -61 23 -4 34 -6
100 -19 32 -7 194 -33 240 -39 139 -19 192 -26 245 -32 33 -3 74 -7 90 -9 181
-20 759 -27 975 -12 160 12 178 14 235 21 28 3 73 9 100 12 28 3 61 7 75 9 14
2 45 7 70 10 65 9 120 18 175 29 11 2 40 7 65 11 25 4 95 18 155 31 61 14 121
27 135 29 38 7 273 71 370 101 415 129 777 279 1133 470 228 122 377 215 681
424 46 31 292 220 326 249 19 17 40 34 45 39 153 128 243 212 409 378 137 137
156 158 271 289 39 44 72 82 75 85 3 3 25 30 50 60 25 30 49 61 55 67 22 27
48 62 116 153 39 52 76 103 84 112 57 70 247 368 354 558 71 125 261 499 261
513 0 4 12 32 26 64 36 78 115 278 153 388 17 50 34 97 37 105 3 8 5 15 4 15
0 0 11 34 25 75 24 69 97 323 109 380 3 14 12 52 21 85 8 33 17 70 19 82 3 13
12 58 20 100 29 140 25 119 50 273 20 126 39 276 51 405 27 292 27 883 0 1120
-2 17 -6 57 -10 90 -6 63 -23 202 -30 245 -52 326 -102 561 -170 795 -15 50
-28 97 -30 105 -2 8 -22 69 -43 135 -206 624 -497 1190 -886 1725 -50 69 -98
134 -107 145 -9 11 -39 47 -65 80 -26 33 -53 66 -59 73 -5 7 -19 23 -30 35
-11 12 -33 38 -49 57 -157 190 -435 465 -696 690 -82 70 -289 233 -330 259
-14 8 -27 18 -30 21 -3 3 -34 26 -70 51 -36 24 -69 48 -75 52 -21 18 -271 179
-290 188 -11 5 -38 20 -60 34 -22 13 -56 33 -75 43 -19 10 -71 39 -115 64
-108 62 -354 180 -525 253 -278 119 -735 272 -923 310 -10 2 -26 6 -35 9 -9 3
-28 7 -42 10 -14 3 -90 19 -170 36 -144 31 -339 64 -435 75 -27 3 -61 8 -75
10 -31 5 -223 24 -310 31 -74 6 -727 14 -732 9z"/>
</g>
</svg>
